<svg width="1002" height="824" viewBox="0 0 1002 824" fill="none" xmlns="http://www.w3.org/2000/svg">
<g clip-path="url(#clip0)">
<path d="M1002 473C666.078 345.706 332.028 342.437 0 473V0H1002V473Z" fill="#2E3740"/>
<path d="M233 30H36V39H233V30Z" fill="#D0CDE1"/>
<path d="M233 53H36V62H233V53Z" fill="#D0CDE1"/>
<path d="M233 76H36V85H233V76Z" fill="#D0CDE1"/>
<path d="M89 114H69V134H89V114Z" fill="#D0CDE1"/>
<path d="M145 114H125V134H145V114Z" fill="#FFC765"/>
<path d="M201 114H181V134H201V114Z" fill="#FF6584"/>
<path d="M219 189H51.0001V217.877H219V189Z" fill="#D0CDE1"/>
<path d="M219 233.311H51.0001V262.189H219V233.311Z" fill="#FFC765"/>
<path d="M219 277.623H51.0001V306.5H219V277.623Z" fill="#FF6584"/>
<path opacity="0.15" d="M120.5 189H51.0001V217.877H120.5V189Z" fill="black"/>
<path opacity="0.15" d="M73.4999 233.311H50.9999V262.189H73.4999V233.311Z" fill="black"/>
<path opacity="0.15" d="M163 277.623H51.0001V306.5H163V277.623Z" fill="black"/>
<path d="M492 23V353C535.761 353 577.729 335.616 608.673 304.673C639.616 273.729 657 231.761 657 188C657 144.239 639.616 102.271 608.673 71.3274C577.729 40.3839 535.761 23 492 23V23Z" fill="#D0CDE1"/>
<path d="M481 30.2536C452.88 30.2476 425.313 38.0645 401.381 52.8301C377.45 67.5956 358.098 88.7275 345.49 113.863L481 194.076V30.2536Z" fill="#D0CDE1"/>
<path d="M334.49 116.013C321.882 141.172 315.917 169.138 317.161 197.252C318.406 225.366 326.818 252.695 341.599 276.642C356.38 300.59 377.039 320.36 401.612 334.074C426.186 347.789 453.858 354.992 482 355V203.33L334.49 116.013Z" fill="#FFC765"/>
<path d="M869 109H768V118H869V109Z" fill="#D0CDE1"/>
<path d="M755 103H735V123H755V103Z" fill="#FFC765"/>
<path d="M869 139H768V148H869V139Z" fill="#D0CDE1"/>
<path d="M755 133H735V153H755V133Z" fill="#FFC765"/>
<path d="M869 169H768V178H869V169Z" fill="#D0CDE1"/>
<path d="M755 163H735V183H755V163Z" fill="#FFC765"/>
<path d="M438.707 250.707L437.293 249.293L542.586 144H726V146H543.414L438.707 250.707Z" fill="#2F2E41"/>
<path d="M1002 732H0V505C322 379.53 656 379.53 1002 505V732Z" fill="#2E3740"/>
<path d="M411.803 604.881L420.94 633.163C420.94 633.163 412.673 659.704 416.589 689.291C420.505 718.878 418.329 719.748 418.329 719.748C418.329 719.748 379.203 717.495 383.119 729.243C387.035 740.991 425.291 734.106 425.291 734.106C425.291 734.106 432.638 732.128 436.119 711.243C439.6 690.358 448.351 650.132 448.351 650.132L440.122 612.157L411.803 604.881Z" fill="#FFB8B8"/>
<path d="M414.849 547.013C414.849 547.013 398.315 553.104 398.315 569.638C398.315 586.172 404.406 608.797 408.322 610.102C412.238 611.408 438.344 629.247 443.13 616.629C447.916 604.011 414.849 547.013 414.849 547.013Z" fill="#D0CDE1"/>
<path d="M553.211 742.808L588.019 741.503L614.56 737.587L606.728 763.693L542.333 765.433L553.211 742.808Z" fill="#FFB8B8"/>
<path d="M603.247 746.289C603.247 746.289 602.812 736.717 598.896 737.152C594.981 737.587 597.591 733.671 601.072 732.801C604.553 731.931 614.56 727.58 614.56 727.58L654.154 730.19C654.154 730.19 679.825 752.816 669.383 764.998C658.94 777.181 631.964 766.304 631.964 766.304L602.812 766.739C602.812 766.739 593.24 751.075 603.247 746.289Z" fill="#2F2E41"/>
<path d="M618.911 712.786L631.529 771.96L657.635 766.739L642.842 692.772L627.178 684.505L618.911 712.786Z" fill="#FFB8B8"/>
<path d="M468.801 705.389C468.801 705.389 395.704 738.457 426.596 771.96C426.596 771.96 426.596 787.624 459.229 784.578C491.861 781.532 554.951 775.876 557.997 777.616C561.043 779.357 570.615 743.243 562.348 741.503C554.081 739.762 544.074 737.587 544.074 737.587C544.074 737.587 552.776 736.282 552.776 728.885C552.776 728.885 577.576 727.145 584.973 711.481C592.37 695.817 599.331 684.069 599.331 684.069L616.3 727.58C616.3 727.58 635.88 691.466 650.673 707.565C650.673 707.565 634.14 603.576 621.522 594.004C608.904 584.431 600.202 581.386 588.454 590.088C576.706 598.79 565.829 620.98 565.829 620.98L468.801 705.389Z" fill="#2F2E41"/>
<path d="M643.277 754.121C640.235 756.415 637.329 758.885 634.575 761.518C631.094 764.998 626.308 763.258 625.873 761.518C625.438 759.777 617.606 762.823 616.736 775.441C615.865 788.059 610.644 799.371 624.567 803.287C638.491 807.203 638.056 818.516 638.056 818.516C649.072 823.801 661.716 824.581 673.299 820.691C692.878 814.165 685.917 807.203 685.917 807.203L659.811 764.128C659.811 764.128 652.849 751.075 643.277 754.121Z" fill="#2F2E41"/>
<path d="M571.05 538.311C571.05 538.311 612.82 552.669 617.171 555.715C621.522 558.76 641.101 573.119 631.529 580.515C621.957 587.912 614.125 592.698 595.416 587.042C576.706 581.386 555.821 563.982 555.821 563.982L571.05 538.311Z" fill="#FFB8B8"/>
<path d="M529.28 519.166C529.28 519.166 545.814 516.12 557.562 522.647C569.31 529.173 579.317 542.226 579.317 542.226C579.317 542.226 568.439 565.287 560.607 568.768C552.776 572.248 538.417 554.844 538.417 554.844L529.28 519.166Z" fill="#D0CDE1"/>
<path d="M453.137 506.548C453.137 506.548 453.573 523.517 451.832 525.258C450.092 526.998 472.717 578.34 497.518 555.715C522.319 533.089 503.174 523.952 503.174 523.952C503.174 523.952 494.037 506.983 494.472 505.243C494.907 503.503 454.008 505.243 454.008 505.243L453.137 506.548Z" fill="#FFB8B8"/>
<path opacity="0.1" d="M453.137 506.548C453.137 506.548 453.573 523.517 451.832 525.258C450.092 526.998 472.717 578.34 497.518 555.715C522.319 533.089 503.174 523.952 503.174 523.952C503.174 523.952 494.037 506.983 494.472 505.243C494.907 503.503 454.008 505.243 454.008 505.243L453.137 506.548Z" fill="black"/>
<path d="M460.099 539.181C460.099 539.181 476.633 550.493 483.595 547.883C490.556 545.272 499.258 533.959 500.128 533.089C500.999 532.219 545.379 621.415 545.379 621.415C545.379 621.415 538.852 654.048 521.448 663.62C504.044 673.192 504.262 680.806 502.086 687.333C499.911 693.859 471.847 666.665 471.847 666.665L454.008 590.958V544.837L460.099 539.181Z" fill="#D0CDE1"/>
<path d="M452.92 518.949C452.92 518.949 447.481 517.861 441.825 522.647C436.169 527.433 409.627 545.272 410.933 547.013C412.238 548.753 423.986 573.554 426.596 583.561C429.207 593.568 433.123 594.874 433.123 594.874C433.123 594.874 442.26 601.4 440.955 606.186C439.649 610.973 433.993 676.238 441.825 690.596C449.657 704.954 448.351 717.572 446.176 721.053C444 724.534 467.061 711.046 467.061 711.046C467.061 711.046 501.434 683.199 504.044 674.932C505.733 669.249 506.898 663.424 507.525 657.528C507.525 657.528 485.335 569.638 478.373 564.852C471.412 560.066 452.92 518.949 452.92 518.949Z" fill="#575A89"/>
<path d="M500.72 519.293C500.72 519.293 511.441 512.64 513.617 514.38C515.792 516.12 536.242 516.12 536.677 517.861C537.112 519.601 537.982 561.371 552.776 572.248C567.569 583.126 557.997 604.881 557.997 604.881L568.874 622.285C568.874 622.285 509.702 679.279 513.617 659.704C513.834 658.616 513.617 658.398 513.617 658.398C513.617 658.398 490.556 559.63 493.602 554.409C496.648 549.188 502.182 525.511 500.72 519.293Z" fill="#575A89"/>
<path d="M591.935 559.195L532.761 579.645C532.761 579.645 474.022 593.568 483.159 609.667C492.297 625.766 531.021 598.355 531.021 598.355L609.82 589.525C609.82 589.525 641.101 563.111 591.935 559.195Z" fill="#FFB8B8"/>
<path d="M476.633 522.647C494.415 522.647 508.83 508.232 508.83 490.449C508.83 472.667 494.415 458.252 476.633 458.252C458.851 458.252 444.435 472.667 444.435 490.449C444.435 508.232 458.851 522.647 476.633 522.647Z" fill="#FFB8B8"/>
<path d="M450.992 458.451L445.036 456.285C445.036 456.285 457.489 443.832 474.816 444.915L469.942 440.042C469.942 440.042 481.854 435.71 492.683 447.08C498.375 453.058 504.962 460.083 509.068 467.998H515.446L512.784 473.322L522.101 478.646L512.538 477.69C513.444 482.286 513.132 487.04 511.633 491.479L509.468 497.434C509.468 497.434 500.805 480.108 500.805 477.943V483.357C500.805 483.357 494.849 478.484 494.849 475.235L491.6 479.025L489.976 473.07L469.942 479.025L473.191 474.152L460.738 475.777L465.611 469.821C465.611 469.821 451.534 476.86 450.992 482.815C450.451 488.771 443.412 496.351 443.412 496.351L440.163 490.937C440.163 490.937 435.29 466.572 450.992 458.451Z" fill="#2F2E41"/>
<path d="M871.067 733.953L869.067 733.914C869.841 711.676 872.213 689.524 876.167 667.627C884.815 620.746 899.196 589.957 918.91 576.115L920.058 577.752C874.007 610.086 871.091 732.718 871.067 733.953Z" fill="#D0CDE1"/>
<path d="M896.067 733.474L894.067 733.435C894.11 731.22 895.36 679.021 915.91 664.594L917.058 666.23C897.338 680.076 896.077 732.942 896.067 733.474Z" fill="#D0CDE1"/>
<path d="M931.436 577.933C936.959 577.933 941.436 573.456 941.436 567.933C941.436 562.411 936.959 557.933 931.436 557.933C925.914 557.933 921.436 562.411 921.436 567.933C921.436 573.456 925.914 577.933 931.436 577.933Z" fill="#FFC765"/>
<path d="M926.484 663.933C932.007 663.933 936.484 659.456 936.484 653.933C936.484 648.411 932.007 643.933 926.484 643.933C920.961 643.933 916.484 648.411 916.484 653.933C916.484 659.456 920.961 663.933 926.484 663.933Z" fill="#FFC765"/>
<path d="M891.406 583.928C893.285 595.932 888.387 606.669 888.387 606.669C888.387 606.669 880.442 597.943 878.562 585.939C876.683 573.935 881.581 563.198 881.581 563.198C881.581 563.198 889.527 571.924 891.406 583.928Z" fill="#FFC765"/>
<path d="M924.062 612.99C912.569 616.933 901.158 614.025 901.158 614.025C901.158 614.025 908.382 604.725 919.875 600.783C931.368 596.841 942.778 599.749 942.778 599.749C942.778 599.749 935.555 609.048 924.062 612.99Z" fill="#D0CDE1"/>
<path d="M924.462 689.243C919.261 690.877 913.721 691.116 908.398 689.937C911.778 685.633 916.33 682.399 921.506 680.624C926.682 678.848 932.261 678.608 937.57 679.93C934.092 684.129 929.572 687.34 924.462 689.243V689.243Z" fill="#D0CDE1"/>
<path d="M805.984 554.335C803.413 554.335 800.9 553.573 798.762 552.144C796.624 550.716 794.958 548.686 793.974 546.31C792.99 543.935 792.732 541.321 793.234 538.799C793.736 536.277 794.974 533.961 796.792 532.143C798.61 530.325 800.926 529.087 803.448 528.585C805.97 528.083 808.584 528.341 810.959 529.325C813.335 530.309 815.365 531.975 816.793 534.113C818.222 536.251 818.984 538.764 818.984 541.335C818.98 544.782 817.61 548.086 815.172 550.523C812.735 552.961 809.431 554.331 805.984 554.335V554.335ZM805.984 530.335C803.809 530.335 801.682 530.98 799.873 532.189C798.064 533.398 796.654 535.116 795.822 537.126C794.989 539.136 794.771 541.347 795.196 543.481C795.62 545.615 796.668 547.575 798.206 549.113C799.744 550.652 801.704 551.699 803.838 552.124C805.972 552.548 808.184 552.33 810.194 551.498C812.204 550.665 813.922 549.255 815.13 547.447C816.339 545.638 816.984 543.511 816.984 541.335C816.981 538.419 815.821 535.623 813.759 533.561C811.697 531.499 808.901 530.339 805.984 530.335V530.335Z" fill="#D0CDE1"/>
<path d="M745 622C749.418 622 753 618.418 753 614C753 609.582 749.418 606 745 606C740.582 606 737 609.582 737 614C737 618.418 740.582 622 745 622Z" fill="#D0CDE1"/>
<path d="M36 531C40.4183 531 44 527.418 44 523C44 518.582 40.4183 515 36 515C31.5817 515 28 518.582 28 523C28 527.418 31.5817 531 36 531Z" fill="#D0CDE1"/>
<path d="M86 657H60V631H86V657ZM62 655H84V633H62V655Z" fill="#D0CDE1"/>
<path d="M251 565C241.111 565 231.444 567.932 223.221 573.427C214.999 578.921 208.59 586.729 204.806 595.866C201.022 605.002 200.031 615.055 201.961 624.755C203.89 634.454 208.652 643.363 215.645 650.355C222.637 657.348 231.546 662.11 241.245 664.039C250.945 665.969 260.998 664.978 270.134 661.194C279.27 657.41 287.079 651.001 292.573 642.779C298.068 634.556 301 624.889 301 615C301 601.739 295.732 589.021 286.355 579.645C276.979 570.268 264.261 565 251 565ZM242.375 637.375L220.868 615.868L226.9 609.835L242.395 625.33L275.1 592.625L281.132 598.658L242.375 637.375Z" fill="#FFC765"/>
</g>
<defs>
<clipPath id="clip0">
<rect width="1002" height="823.119" fill="white"/>
</clipPath>
</defs>
</svg>
