<svg width="490" height="740" viewBox="0 0 490 740" fill="none" xmlns="http://www.w3.org/2000/svg">
<path opacity="0.1" d="M229.11 344.05H113.24C109.137 344.05 105.81 347.377 105.81 351.48V376.14C105.81 380.244 109.137 383.57 113.24 383.57H229.11C233.213 383.57 236.54 380.244 236.54 376.14V351.48C236.54 347.377 233.213 344.05 229.11 344.05Z" fill="#FFD369"/>
<path opacity="0.1" d="M365.93 383.57H250.06C245.957 383.57 242.63 386.897 242.63 391V415.66C242.63 419.764 245.957 423.09 250.06 423.09H365.93C370.033 423.09 373.36 419.764 373.36 415.66V391C373.36 386.897 370.033 383.57 365.93 383.57Z" fill="#FFD369"/>
<path opacity="0.1" d="M229.11 292.76H113.24C109.137 292.76 105.81 296.087 105.81 300.19V324.85C105.81 328.953 109.137 332.28 113.24 332.28H229.11C233.213 332.28 236.54 328.953 236.54 324.85V300.19C236.54 296.087 233.213 292.76 229.11 292.76Z" fill="#FFD369"/>
<path opacity="0.1" d="M365.93 324.29H250.06C245.957 324.29 242.63 327.617 242.63 331.72V356.38C242.63 360.484 245.957 363.81 250.06 363.81H365.93C370.033 363.81 373.36 360.484 373.36 356.38V331.72C373.36 327.617 370.033 324.29 365.93 324.29Z" fill="#FFD369"/>
<path opacity="0.1" d="M229.11 205.71H113.24C109.137 205.71 105.81 209.037 105.81 213.14V237.8C105.81 241.903 109.137 245.23 113.24 245.23H229.11C233.213 245.23 236.54 241.903 236.54 237.8V213.14C236.54 209.037 233.213 205.71 229.11 205.71Z" fill="#FFD369"/>
<path opacity="0.1" d="M365.93 245.24H250.06C245.957 245.24 242.63 248.567 242.63 252.67V277.33C242.63 281.433 245.957 284.76 250.06 284.76H365.93C370.033 284.76 373.36 281.433 373.36 277.33V252.67C373.36 248.567 370.033 245.24 365.93 245.24Z" fill="#FFD369"/>
<path opacity="0.1" d="M229.11 146.43H113.24C109.137 146.43 105.81 149.757 105.81 153.86V178.52C105.81 182.623 109.137 185.95 113.24 185.95H229.11C233.213 185.95 236.54 182.623 236.54 178.52V153.86C236.54 149.757 233.213 146.43 229.11 146.43Z" fill="#FFD369"/>
<path opacity="0.1" d="M365.93 185.95H250.06C245.957 185.95 242.63 189.277 242.63 193.38V218.04C242.63 222.143 245.957 225.47 250.06 225.47H365.93C370.033 225.47 373.36 222.143 373.36 218.04V193.38C373.36 189.277 370.033 185.95 365.93 185.95Z" fill="#FFD369"/>
<path d="M54 321L8 603L216 581L207 557L44.5 570.5L82.5 320.5L54 321Z" fill="#2E3740"/>
<path d="M0 1L280 0L361 613L80 651L0 1Z" fill="#2E3740"/>
<path d="M30.5 24.5H256.5L335.5 594.5L102.5 626.5L30.5 24.5Z" fill="white"/>
<path d="M243.64 568.86C245.06 571.58 246.12 574.52 247.97 576.97C253.37 584.19 263.62 585.32 271.31 590.03C271.695 590.225 272.012 590.532 272.22 590.91C272.57 591.74 271.79 592.61 271.04 593.13C265.21 597.22 257.56 597.31 250.43 597.26C248.034 597.345 245.637 597.117 243.3 596.58C239.53 595.58 236.3 592.95 232.58 591.88C230.651 591.398 228.677 591.12 226.69 591.05L218.88 590.52C216.801 590.49 214.742 590.108 212.79 589.39C211.818 589.018 210.955 588.405 210.284 587.61C209.612 586.814 209.153 585.861 208.95 584.84C208.73 583.18 209.44 581.57 209.86 579.95C210.86 576.11 210.55 571.47 213.54 568.85C214.772 567.907 216.185 567.226 217.69 566.85C223.125 565.018 228.673 563.542 234.3 562.43C238.93 561.52 241.59 564.92 243.64 568.86Z" fill="#2E3740"/>
<path d="M155.3 590.49C155.5 592.62 155.56 595.06 154.02 596.55C153.061 597.346 151.903 597.865 150.67 598.05C143.28 599.77 135.04 599.89 128.61 595.87C127.941 595.488 127.351 594.982 126.87 594.38C126.334 593.56 126.03 592.609 125.99 591.63C125.76 588.8 126.63 586.01 127.42 583.28C129.289 576.802 130.709 570.203 131.67 563.53C131.75 562.98 150.54 566.53 151.79 568.39C153.36 570.69 153.37 576.21 153.79 578.95C154.423 582.777 154.927 586.623 155.3 590.49Z" fill="#2E3740"/>
<path d="M225.24 330.27L230.24 376.76C231.24 386.26 232.29 395.81 231.6 405.34C230.8 416.34 227.72 427.34 229.02 438.24C229.53 442.48 230.69 446.64 230.86 450.91C230.892 453.749 230.748 456.588 230.43 459.41C228.17 487.62 235.32 515.61 239.32 543.62C239.963 547.075 240.105 550.605 239.74 554.1C239.22 557.65 238.18 562.31 241.34 563.99L211.66 574.75C207.87 570 210.38 562.61 209.66 556.58C209 551.15 206.02 546.31 204.43 541.08C202.99 536.38 202.69 531.43 202.22 526.55C199.63 499.98 191.68 474.1 189.82 447.47C189.76 444.898 189.425 442.34 188.82 439.84C187.82 436.53 185.82 433.64 184.36 430.53C182.12 425.86 181.02 420.74 179.94 415.68L173.59 385.93C167.17 395.49 167.43 407.93 166.16 419.39C164.38 435.39 160.4 451.12 157.16 466.92C156.407 470.32 155.843 473.758 155.47 477.22C154.63 486.49 156.3 495.85 155.41 505.11C154.41 515.84 149.9 526.31 150.99 537.04C151.59 542.98 153.87 548.6 155.41 554.36C156.95 560.12 157.71 566.44 155.36 571.93C147.147 568.914 138.324 567.94 129.65 569.09C120.12 559.34 118.43 545.74 117.78 532.09C117.13 518.44 118.7 504.77 117 491.25C116.5 487.25 115.72 483.35 115.59 479.36C115.17 466.57 121.32 454.6 124.38 442.17C127.134 430.98 127.397 419.322 125.15 408.02C123.65 400.55 121.07 393.3 120.15 385.73C118.9 375.12 121.02 364.43 123.15 353.95C124.58 346.88 126 339.81 127.62 332.78C129.36 325.23 131.43 317.52 136.08 311.34C143.52 301.45 156.73 297.06 169.08 298.02C181.43 298.98 192.96 304.6 203.16 311.6C211.199 316.973 218.606 323.236 225.24 330.27Z" fill="#192534"/>
<path d="M192.06 152.25C191.499 153.151 191.109 154.148 190.91 155.19C190.66 157.24 191.91 159.12 192.91 160.91C194.191 163.21 195.176 165.663 195.84 168.21C196.316 169.787 196.462 171.444 196.27 173.08C196.026 174.308 195.587 175.49 194.97 176.58C193.04 180.3 190.18 183.74 186.29 185.29C183.278 186.399 179.992 186.532 176.9 185.67C173.828 184.8 170.925 183.421 168.31 181.59C166.106 180.193 164.124 178.474 162.43 176.49C160.812 174.32 159.45 171.971 158.37 169.49C156.29 165.14 154.18 160.49 154.56 155.72C154.58 155.287 154.661 154.86 154.8 154.45C155.125 153.709 155.578 153.032 156.14 152.45C160.406 147.394 162.594 140.907 162.26 134.3L176.83 137.61C180.04 138.34 183.25 139.07 186.42 139.98C189.02 140.73 193.02 141.77 194.71 144.09C196.4 146.41 193.21 150.13 192.06 152.25Z" fill="#FBBEBE"/>
<path d="M184.26 149.77C198.885 149.77 210.74 137.915 210.74 123.29C210.74 108.666 198.885 96.81 184.26 96.81C169.636 96.81 157.78 108.666 157.78 123.29C157.78 137.915 169.636 149.77 184.26 149.77Z" fill="#FBBEBE"/>
<path d="M180 176.71C181.12 174.26 183.54 172.71 185.75 171.17C187.96 169.63 190.2 167.66 190.63 164.99C190.656 164.386 190.806 163.794 191.07 163.25C191.92 161.97 193.94 162.61 195.15 163.55C198.09 165.84 200.09 169.09 202.04 172.26C204.563 176.115 206.722 180.196 208.49 184.45C211.3 191.86 211.64 199.95 211.95 207.86C212.23 215.06 212.5 222.37 210.75 229.35C209.65 233.77 207.75 238.06 207.64 242.61C207.31 259.14 201.57 274.94 201.17 291.47C201.14 296.25 201.38 301.027 201.89 305.78L202.83 316.51C188.29 315.677 173.79 314.4 159.33 312.68C158.91 307.74 157.5 302.95 156.21 298.17C150.928 278.628 147.542 258.622 146.1 238.43C145.33 227.71 144.54 217.03 143.35 206.35C142.28 196.64 140.18 186.87 141.44 177.18C142.099 172.776 143.485 168.511 145.54 164.56C146.19 162.986 147.307 161.649 148.74 160.73C149.456 160.384 150.217 160.138 151 160C153.267 159.541 155.568 159.27 157.88 159.19C158.445 159.142 159.014 159.197 159.56 159.35C160.534 159.836 161.334 160.611 161.85 161.57C166.305 168.268 172.611 173.528 180 176.71V176.71Z" fill="#F2F2F2"/>
<path d="M167.72 174.59C169.58 177.25 173.52 177.88 175.24 180.59C175.819 181.723 176.259 182.921 176.55 184.16C177.6 187.51 179.72 190.42 181.01 193.69C182.87 198.39 182.92 203.59 182.94 208.64C183.123 212.663 182.814 216.692 182.02 220.64C181.42 223.11 180.44 225.46 179.72 227.9C178.497 232.049 178.043 236.387 178.38 240.7C178.38 241.632 178.629 242.546 179.1 243.35C179.778 244.153 180.664 244.755 181.66 245.09C184.59 246.38 187.66 247.7 190.86 247.4C191.516 247.379 192.152 247.167 192.69 246.79C193.061 246.452 193.366 246.049 193.59 245.6L195.59 242.22C197.4 239.13 199.29 235.67 198.59 232.14C198.082 230.318 197.317 228.577 196.32 226.97C195.042 224.361 193.952 221.664 193.06 218.9C189.87 209.73 186.64 200.43 185.92 190.75C185.497 187.066 185.907 183.334 187.12 179.83C188.059 177.673 189.24 175.63 190.64 173.74C190.323 173.315 189.885 172.997 189.383 172.827C188.881 172.657 188.339 172.644 187.83 172.79C186.824 173.101 185.85 173.506 184.92 174C181.98 175.24 178.72 174.79 175.75 173.94C174.59 173.6 172.75 172.44 171.55 172.52C171.14 172.57 167.79 174.71 167.72 174.59Z" fill="#FFD369"/>
<path d="M191.13 174.48C190.53 174 189.6 173.56 189.07 174.12C188.892 174.363 188.763 174.638 188.69 174.93C188.17 176.33 186.64 177.02 185.25 177.56C183.86 178.1 182.36 178.4 181.52 177.37C181.255 176.969 181.125 176.494 181.148 176.014C181.171 175.534 181.347 175.073 181.65 174.7C182.265 173.959 183.007 173.333 183.84 172.85C188.44 169.603 191.573 164.673 192.56 159.13C193.85 160.155 194.704 161.631 194.95 163.26C195.28 164.85 195.32 166.49 195.65 168.08C196.14 170.36 197.23 172.49 197.48 174.8C197.61 176.03 197.48 177.27 197.48 178.5C197.525 179.703 197.665 180.9 197.9 182.08C195.56 179.6 193.91 176.69 191.13 174.48Z" fill="#F2F2F2"/>
<path d="M170.89 167.69C169.89 166.74 168.89 165.84 167.89 164.87C163.502 160.587 160.188 155.327 158.22 149.52C156.94 150.52 155.53 151.84 155.5 153.52C155.614 154.709 156.073 155.838 156.82 156.77C160.602 162.725 163.098 169.404 164.15 176.38C164.69 175.536 165.439 174.845 166.323 174.374C167.207 173.903 168.198 173.667 169.2 173.69C170.78 173.69 177.87 177.89 178.38 176.83C179.13 175.17 172.09 168.82 170.89 167.69Z" fill="#F2F2F2"/>
<path d="M193.22 159.73C202.627 169.094 214.142 176.066 226.8 180.06C228.058 180.334 229.225 180.927 230.19 181.78C230.911 182.68 231.395 183.745 231.6 184.88C234.04 194.42 234.86 204.29 235.67 214.1C235.882 215.722 235.848 217.368 235.57 218.98C234.98 221.6 233.12 223.72 231.29 225.69C225.55 231.84 219 238.27 218.03 246.63C217.956 248.242 217.765 249.846 217.46 251.43C216.96 253.29 215.85 254.93 215.17 256.74C211.83 265.65 219.38 276.44 214.78 284.74C217.27 289.524 218.978 294.676 219.84 300C219.994 302.018 220.456 304.001 221.21 305.88C222.58 308.74 225.4 310.56 227.62 312.88C234.39 319.82 235.22 330.44 235.62 340.13C235.87 345.59 235.79 351.86 231.62 355.44C229.21 357.53 225.92 358.21 222.77 358.73C218.58 359.43 214.02 359.93 210.31 357.86C207.65 356.38 205.84 353.79 204.11 351.29C200.83 346.52 197.54 341.76 194.43 336.87C189.51 329.16 184.87 320.35 186.29 311.31C185.89 320.56 183.94 329.88 179.4 337.94C174.86 346 167.55 352.73 158.68 355.39C149.81 358.05 139.44 356.17 132.83 349.69C130.672 347.468 128.819 344.97 127.32 342.26C123.557 335.817 120.812 328.831 119.18 321.55C118.75 319.66 118.43 317.55 119.38 315.86C119.83 315.06 120.52 314.43 120.99 313.64C122.57 310.95 121.05 307.56 119.52 304.82C117.19 305.04 115.52 302.3 115.73 299.96C115.94 297.62 117.34 295.59 118.33 293.46C121.23 287.18 120.59 279.87 119.19 273.1C117.79 266.33 115.7 259.6 115.86 252.69C116.03 245.38 110.77 238.8 106.76 232.69C104.52 229.25 101.91 226.05 99.96 222.44C95.8944 214.843 94.9544 205.959 97.34 197.68C98.7403 193.429 100.577 189.333 102.82 185.46L106.12 179.27C106.734 177.791 107.688 176.477 108.904 175.435C110.12 174.393 111.564 173.651 113.12 173.27L135.95 164.27C138.869 163.273 141.641 161.887 144.19 160.15C146.98 158.05 149.06 155.15 151.72 152.91C152.108 152.503 152.573 152.177 153.088 151.952C153.603 151.727 154.158 151.608 154.72 151.6C156.86 151.79 157.62 154.49 157.84 156.6C158.34 161.32 161.84 165.32 163.03 169.91C169.47 195.26 183.1 218.64 186.84 244.52C191.04 234.43 195.24 224.32 200.62 214.82C201.469 213.456 202.182 212.013 202.75 210.51C203.396 208.343 203.636 206.075 203.46 203.82C203.19 197.31 201.46 190.95 199.75 184.66C197.53 176.1 195.53 168.21 193.22 159.73Z" fill="#2E3740"/>
<path d="M236.73 237.19C237.17 241.45 237.6 245.72 238.39 249.93C239.31 254.8 240.71 259.56 242.1 264.32C242.779 266.996 243.751 269.588 245 272.05C245.453 272.765 245.812 273.534 246.07 274.34C246.56 276.34 245.44 278.34 244.96 280.34C243.52 286.34 247.84 293.01 245.12 298.54C244.3 300.22 242.87 301.61 242.33 303.41C241.7 305.48 242.33 307.69 242.66 309.83C243.51 315.83 241.46 321.93 239.44 327.7L236 337.44C232.86 331.6 229.69 325.7 225.35 320.69C223.8 318.89 222.11 317.22 220.68 315.32C218.548 312.334 216.863 309.053 215.68 305.58C212.627 297.328 210.883 288.65 210.51 279.86C210.262 277.361 210.552 274.838 211.36 272.46C212.022 271.085 212.763 269.749 213.58 268.46C216.26 263.63 216.81 257.91 216.76 252.39C216.71 246.87 216.12 241.33 216.76 235.84C217.282 231.256 218.638 226.806 220.76 222.71C222.012 220.057 223.872 217.738 226.19 215.94C227.92 214.645 230.03 213.959 232.19 213.99C235.46 214.18 234.71 216.99 234.99 219.7L236.73 237.19Z" fill="#2E3740"/>
<path d="M89.64 223.58C87.6 229.58 85.76 235.633 84.12 241.74C82.52 247.74 81.09 253.773 79.83 259.84C79.1828 262.507 78.8208 265.236 78.75 267.98C78.8779 271.175 79.426 274.338 80.38 277.39C86.82 300.6 98.56 322.01 111.78 342.14C115.558 337.429 120.044 333.333 125.08 330C125.492 329.756 125.836 329.412 126.08 329C126.207 328.611 126.244 328.199 126.188 327.793C126.133 327.388 125.986 327.001 125.76 326.66C122.11 319.18 116.33 312.59 114.51 304.46C113.75 301.08 113.72 297.56 112.86 294.2C111.75 289.85 109.27 285.87 108.7 281.41C108.09 276.55 109.7 271.25 107.42 266.94C112.07 265.13 114.76 260.34 116.73 255.75C118.835 251.054 120.34 246.112 121.21 241.04C122.579 231.316 120.676 221.413 115.8 212.89C113.418 208.638 110.362 204.802 106.75 201.53C105.56 200.46 102.75 197.39 101.02 197.42C98.71 197.47 97.97 201.21 97.31 202.89C94.64 209.75 92 216.62 89.64 223.58Z" fill="#2E3740"/>
<path d="M131.06 335.51C131.36 335.73 131.7 336.03 131.62 336.39C131.54 336.75 131.25 336.84 130.99 336.99C129.638 337.949 128.629 339.316 128.11 340.89C126.448 344.635 124.999 348.471 123.77 352.38C121.532 349.027 118.9 345.955 115.93 343.23C113.65 341.13 111.1 339.14 109.88 336.3C109.88 336.22 115.12 332.35 115.6 331.93C117.07 330.62 118.92 326.99 120.44 326.19C122.16 325.29 123.8 328.82 125.11 330.24C126.912 332.191 128.905 333.957 131.06 335.51V335.51Z" fill="#FBBEBE"/>
<path d="M212.38 119.15C212.31 117.84 212.14 116.39 211.14 115.54C210.262 114.933 209.205 114.64 208.14 114.71C202.31 114.52 196.28 115.5 190.78 113.54C187.16 112.25 184.07 109.77 180.54 108.23C177.01 106.69 172.49 106.28 169.64 108.87C167.48 110.87 166.89 113.94 166.14 116.77C164.489 123.016 161.549 128.848 157.51 133.89C154.8 133.05 152.86 130.63 151.61 128.09C147.36 119.43 149.45 109.09 152.47 99.91C153.47 96.83 154.58 93.78 155.69 90.74L158.13 84.02C161.333 83.7055 164.308 82.2249 166.49 79.86L167.54 82.41C170.252 82.3124 172.869 81.3877 175.04 79.76C175.88 81.34 178.04 81.76 179.79 81.25C181.54 80.74 183.05 79.76 184.79 79.25C189.44 77.75 194.4 80.06 199.28 80.32C201.345 80.2697 203.411 80.3298 205.47 80.5C211.23 81.43 215.3 86.85 217.06 92.41C218.23 96.11 219.2 100.66 222.85 101.97C222.93 103.37 220.45 103.64 220.24 104.97C220.215 105.413 220.319 105.854 220.54 106.24L223.89 113.43C222.289 113.832 220.604 113.748 219.05 113.19C217.54 116.74 212.53 121.86 212.38 119.15Z" fill="#192534"/>
<path d="M382.14 134.8C383.837 140.283 385.174 145.872 386.14 151.53C386.86 155.77 387.28 160.48 384.85 164.02C394.11 150.09 403.78 135.74 417.85 126.75C414.985 123.643 412.805 119.969 411.453 115.965C410.1 111.961 409.605 107.718 410 103.51C410.08 102.67 398.45 107.06 397.56 107.56C393.48 109.83 389.74 112.65 385.76 115.08C383.7 116.33 375.12 119.29 375.04 121.08C375.04 122.23 378.45 125.75 379.09 126.96C380.346 129.474 381.367 132.098 382.14 134.8Z" fill="#FBBEBE"/>
<path d="M425.17 660.18C422.884 658.57 420.204 657.608 417.415 657.397C414.627 657.185 411.833 657.733 409.33 658.98C404.8 661.32 401.75 665.75 397.63 668.75C390.55 673.89 381.2 674.3 372.91 677.08C370.71 677.82 368.37 678.92 367.44 681.08C367.128 681.988 367.004 682.95 367.074 683.907C367.145 684.864 367.409 685.798 367.85 686.65C369.236 689.739 371.664 692.242 374.71 693.72C378.43 695.5 382.71 695.58 386.83 695.63L422.63 696.05C433.63 696.18 444.7 696.31 455.63 697.68C458.18 698 460.94 698.35 463.19 697.1C466.85 695.1 467.27 690.04 466.99 685.87C466.253 675.305 463.892 664.916 459.99 655.07C459.56 653.98 458.99 652.74 457.78 652.54C456.921 652.501 456.077 652.771 455.4 653.3C445.3 659.3 432.51 662.69 421.77 657.89" fill="#FFD369"/>
<path d="M443.09 431.78C439.09 455.01 441.7 478.88 446.2 502.01C447.029 506.615 448.12 511.17 449.47 515.65C451.08 520.75 453.25 525.65 454.76 530.78C458.6 543.78 458.06 557.68 457.49 571.25L454.87 633C454.65 638.18 454.45 643.48 456.01 648.42C456.64 650.42 457.41 652.92 455.82 654.27C455.198 654.717 454.471 654.996 453.71 655.08C446.555 656.398 439.164 655.29 432.71 651.93L432 589.55C431.78 570.32 431.55 551.01 428.59 532.02C426.24 516.92 422.16 502.02 421.89 486.74C421.61 470.74 425.53 454.95 429.53 439.44C430.39 436.12 433.53 433.69 436.11 431.44C437.01 430.552 438.106 429.888 439.31 429.5C440.51 429.17 442.35 430.77 443.09 431.78Z" fill="#3F3D56"/>
<path opacity="0.1" d="M443.09 431.78C439.09 455.01 441.7 478.88 446.2 502.01C447.029 506.615 448.12 511.17 449.47 515.65C451.08 520.75 453.25 525.65 454.76 530.78C458.6 543.78 458.06 557.68 457.49 571.25L454.87 633C454.65 638.18 454.45 643.48 456.01 648.42C456.64 650.42 457.41 652.92 455.82 654.27C455.198 654.717 454.471 654.996 453.71 655.08C446.555 656.398 439.164 655.29 432.71 651.93L432 589.55C431.78 570.32 431.55 551.01 428.59 532.02C426.24 516.92 422.16 502.02 421.89 486.74C421.61 470.74 425.53 454.95 429.53 439.44C430.39 436.12 433.53 433.69 436.11 431.44C437.01 430.552 438.106 429.888 439.31 429.5C440.51 429.17 442.35 430.77 443.09 431.78Z" fill="black"/>
<path d="M368 359.18C366.52 365.27 369.66 371.58 369.31 377.84C369.11 381.63 367.62 385.41 368.31 389.13C369 392.85 371.66 395.65 373.08 399.06C374.116 401.908 374.663 404.91 374.7 407.94C375.11 415.42 374.78 422.94 374.5 430.39C374.03 442.89 373.68 455.46 375.33 467.85C376.767 478.584 379.685 489.067 384 499C385.308 501.702 386.388 504.508 387.23 507.39C387.783 510.075 388.15 512.795 388.33 515.53C389.281 524.426 391.668 533.109 395.4 541.24C397.95 546.81 402.4 551.24 403.81 557.15C405.15 562.81 404.25 568.78 405.22 574.51C405.93 578.76 407.66 582.78 408.62 586.98C409.87 592.41 409.84 598.04 410.47 603.58C412.27 619.58 419.54 635.58 415.2 651.1C414.33 654.22 412.98 657.39 413.59 660.57C413.89 662.13 414.65 663.67 414.31 665.22C414.03 666.54 413.01 667.56 412.49 668.81C411.49 671.15 412.55 673.93 414.33 675.74C416.229 677.427 418.436 678.731 420.83 679.58C428.2 682.73 435.83 685.93 443.83 685.86C444.801 685.912 445.771 685.734 446.66 685.34C448.1 684.59 448.81 682.96 449.42 681.46L453.52 671.32C454.02 670.09 454.52 668.65 453.83 667.51C453.35 666.885 452.768 666.344 452.11 665.91C448.8 663.12 449.55 657.91 450.43 653.72C452.678 642.958 453.923 632.012 454.15 621.02C454.59 599.1 450.98 577.31 447.38 555.68C446.13 548.17 444.87 540.61 442.38 533.41C439.89 526.21 436.22 519.28 436.82 511.8C437.46 503.72 435.36 495.25 436.82 487.28C438.28 479.31 440.59 471.51 442.08 463.55C444.01 453.22 444.49 442.69 445.08 432.21C445.33 427.93 445.65 423.51 447.65 419.71C448.82 417.49 450.52 415.59 451.83 413.44C455.21 407.85 455.75 400.92 458.98 395.24C460.51 392.55 462.62 390.18 463.74 387.3C464.526 385.028 464.938 382.644 464.96 380.24C465.277 374.205 464.942 368.153 463.96 362.19C446.937 353.528 428.058 349.148 408.96 349.43C401.65 349.55 394.26 350.29 387.4 352.82C380.86 355.25 374.9 358.66 368 359.18Z" fill="#2E3740"/>
<path d="M409 676C406.06 679.66 406.26 684.89 404.38 689.2C402.1 694.43 397.02 697.78 392.2 700.83L362.2 719.83C360.56 720.83 358.8 722.06 358.2 723.92C357.915 725.107 357.967 726.351 358.35 727.51C359.066 730.019 360.401 732.308 362.232 734.168C364.063 736.027 366.332 737.396 368.83 738.15C371.485 738.783 374.212 739.062 376.94 738.98L390.43 739.16C394.54 739.321 398.655 739.16 402.74 738.68C406.48 738.14 410.12 737.07 413.84 736.39C420.61 735.16 427.57 735.27 434.35 734.08C438.502 733.264 442.602 732.205 446.63 730.91C451.53 729.44 456.52 727.91 460.72 725C461.876 724.296 462.814 723.286 463.43 722.08C464.14 720.43 463.75 718.54 463.35 716.79L456.91 688.49C456.547 686.133 455.688 683.881 454.39 681.88C452.96 679.98 450.39 678.72 448.16 679.53C447.24 679.949 446.371 680.473 445.57 681.09C442.27 683.26 438.04 683.62 434.14 682.94C431.62 682.49 428.29 681.8 426.26 680.13C424.72 678.86 424.26 676.89 422.95 675.45C422.032 674.507 420.925 673.767 419.702 673.279C418.48 672.791 417.168 672.566 415.852 672.618C414.537 672.67 413.247 672.998 412.067 673.58C410.886 674.163 409.841 674.987 409 676Z" fill="#FEC665"/>
<path d="M389.55 130.9C409.504 130.9 425.68 114.724 425.68 94.77C425.68 74.816 409.504 58.64 389.55 58.64C369.596 58.64 353.42 74.816 353.42 94.77C353.42 114.724 369.596 130.9 389.55 130.9Z" fill="#FBBEBE"/>
<path d="M361.68 96.89C365.14 94.95 365.14 89.36 368.68 87.5C372.22 85.64 376.24 88.87 378.51 92.13C381.819 96.9044 384.116 102.305 385.26 108C385.58 109.62 385.88 111.39 387.1 112.52C388.32 113.65 389.92 113.79 391.48 113.95C396.047 114.403 400.62 114.817 405.2 115.19C410.3 115.6 415.68 115.93 420.31 113.74C422.137 112.923 423.707 111.623 424.85 109.98C425.766 108.402 426.421 106.687 426.79 104.9C429.18 95.81 431.59 86.61 431.79 77.21C431.87 73.33 431.53 69.31 429.66 65.91C428.57 63.91 426.97 62.17 426.52 59.97C426.07 57.77 427.52 54.97 429.8 55.21C427.739 55.2948 425.686 54.9047 423.8 54.07C421.99 53.07 420.65 50.92 421.29 48.96C416.21 49.61 412.51 44.59 408.55 41.34C407.906 40.7016 407.037 40.3424 406.13 40.34C405.434 40.5136 404.762 40.7722 404.13 41.11C402.13 41.81 400.04 40.48 397.99 39.9C392.49 38.36 385.5 42.08 381.42 38.08C381.81 40.63 378.68 42.34 376.1 42.29C373.52 42.24 370.86 41.29 368.42 42.15C368.773 42.7964 368.98 43.5128 369.024 44.2481C369.068 44.9835 368.95 45.7195 368.676 46.4036C368.403 47.0877 367.982 47.703 367.443 48.2054C366.905 48.7079 366.261 49.085 365.56 49.31L366.77 51.95C365.523 52.1992 364.371 52.792 363.443 53.6614C362.516 54.5307 361.85 55.6421 361.52 56.87C360.19 62.12 360.52 69.58 360.84 74.98C361 77.35 363.31 96 361.68 96.89Z" fill="#192534"/>
<g filter="url(#filter0_d)">
<path d="M392.51 141.34C374.36 161.75 369.74 190.48 365.87 217.53L360.17 257.47C358.69 267.83 357.17 278.19 355.88 288.58C354.98 295.69 354.14 302.91 355.12 310.01C355.89 315.61 357.76 321.01 359.32 326.4C363.379 340.537 365.4 355.182 365.32 369.89C366.53 366.33 370.72 364.89 374.4 364.09C405.278 357.39 437.493 360.831 466.26 373.9C471.31 359.75 470.36 344.27 471.77 329.31C473.77 307.98 480.66 287.31 482.7 266.02C483.45 258.09 483.54 250.12 483.62 242.15C483.68 236.3 483.74 230.39 482.52 224.66C481.16 218.32 478.29 212.41 475.32 206.66C467.11 190.676 457.988 175.177 448 160.24C442.973 152.72 437.73 145.35 432.27 138.13C429.503 134.47 426.68 130.85 423.8 127.27C421.01 123.8 419.8 120.79 415.37 122.87C407 126.79 398.6 134.49 392.51 141.34Z" fill="#FEC665"/>
</g>
<path d="M402.91 311.22C398.482 311.38 394.049 311.24 389.64 310.8C386.37 310.48 383.03 310 379.84 310.8C378.453 311.149 377.155 311.786 376.03 312.67C375.613 313.041 375.314 313.526 375.168 314.064C375.022 314.603 375.037 315.172 375.21 315.703C375.383 316.234 375.707 316.702 376.142 317.052C376.577 317.401 377.105 317.616 377.66 317.67L381.08 317.97C383.25 318.16 385.51 318.38 387.2 319.97C387.894 320.595 388.335 321.452 388.44 322.38C388.65 324.71 386.63 325.98 384.82 326.95C382.247 328.158 379.867 329.742 377.76 331.65C376.11 333.244 375.073 335.368 374.83 337.65C374.822 337.853 374.868 338.055 374.963 338.235C375.058 338.415 375.199 338.567 375.371 338.675C375.544 338.784 375.741 338.845 375.945 338.853C376.148 338.861 376.35 338.815 376.53 338.72C380.53 336.72 383.14 330.79 387.53 331.78C383.537 333.044 380.117 335.675 377.87 339.21C377.316 340.054 377.063 341.061 377.152 342.066C377.242 343.072 377.669 344.018 378.363 344.751C379.058 345.484 379.98 345.96 380.979 346.104C381.979 346.247 382.997 346.048 383.87 345.54C384.52 345.159 385.148 344.742 385.75 344.29C388.724 341.882 391.388 339.114 393.68 336.05C390.48 342.8 387.24 350.7 390.92 357.41C391.103 357.779 391.39 358.087 391.745 358.296C392.1 358.506 392.508 358.608 392.92 358.59C394.08 358.47 394.42 357.38 394.61 356.42C395.21 353.33 395.36 350.07 396.88 347.32C400.4 340.94 409.08 340.32 415.69 337.21C423.62 333.53 429.05 325.61 431.24 317.15C432.006 314.683 432.14 312.063 431.63 309.53C430.16 303.84 423.14 302.53 418.63 305.28C413.1 308.79 409.89 311 402.91 311.22Z" fill="#FBBEBE"/>
<g opacity="0.1" filter="url(#filter1_d)">
<path d="M395.89 199.29C402.89 210.1 415.04 216.19 425.46 223.78C428.002 225.436 430.219 227.544 432 230C434.63 234.06 435 239.22 434.46 244C433.78 250.31 431.75 256.38 429.74 262.4L425.37 275.45C422.6 283.73 419.74 292.18 414.47 299.14C413.12 300.91 411.55 302.8 411.61 305.02C411.726 306.303 412.167 307.534 412.89 308.6C414.577 311.352 416.799 313.737 419.426 315.613C422.053 317.489 425.03 318.817 428.18 319.52C430.067 320 432.043 320 433.93 319.52C436.63 318.72 438.66 316.52 440.54 314.44C449.54 304.51 458.54 294.44 465.04 282.79C471.39 271.42 475.19 258.79 478.69 246.28C480.131 241.675 481.136 236.944 481.69 232.15C482.43 223.15 480.07 214.15 476.21 206.02C472.35 197.89 467.04 190.53 461.57 183.38C456.407 176.357 450.671 169.774 444.42 163.7C433.54 153.53 420.23 147.55 405.67 153.32C395.39 157.4 391.54 165.91 390.62 176.81C389.841 184.68 391.695 192.586 395.89 199.29V199.29Z" fill="black"/>
</g>
<g filter="url(#filter2_d)">
<path d="M399.53 196.55C406.53 207.36 418.69 213.45 429.1 221.04C431.634 222.712 433.84 224.833 435.61 227.3C438.24 231.36 438.61 236.51 438.07 241.3C437.38 247.61 435.36 253.68 433.34 259.7L428.97 272.7C426.2 280.98 423.34 289.42 418.07 296.39C416.73 298.16 415.16 300.04 415.22 302.27C415.33 303.551 415.771 304.781 416.5 305.84C418.184 308.593 420.405 310.98 423.03 312.857C425.655 314.735 428.63 316.066 431.78 316.77C433.67 317.25 435.65 317.25 437.54 316.77C440.24 315.98 442.26 313.77 444.15 311.7C453.15 301.76 462.15 291.7 468.65 280.05C475 268.68 478.8 256.05 482.3 243.53C483.745 238.929 484.75 234.201 485.3 229.41C486.04 220.41 483.68 211.41 479.83 203.27C475.98 195.13 470.66 187.78 465.19 180.63C460.01 173.644 454.26 167.098 448 161.06C437.13 150.9 423.82 144.91 409.26 150.69C398.97 154.77 395.13 163.27 394.2 174.18C393.466 182.02 395.34 189.883 399.53 196.55V196.55Z" fill="#FEC665"/>
</g>
<path d="M75.691 139.748V127.231C69.3637 127.107 62.818 124.876 59 121.778L61.618 113.475C66.1553 116.875 71.6578 118.741 77.3274 118.803C85.0732 118.803 90.3096 113.722 90.3096 106.658C90.3096 99.8417 86.0548 95.6284 77.982 91.91C66.8544 86.953 59.9817 81.2518 59.9817 70.4702C59.9817 60.1835 66.4182 52.3759 76.4549 50.5171V38H83.2185V50.0215C88.262 50.0903 93.1815 51.5949 97.4008 54.3588L94.6731 62.5385C90.6265 59.7685 85.8313 58.2985 80.9276 58.3246C72.5277 58.3246 69.3638 64.0253 69.3638 68.9828C69.3638 75.4271 73.4002 78.6493 82.8915 83.1113C94.1277 88.3163 99.8009 94.7606 99.8009 105.79C99.8009 115.581 93.8006 124.752 82.5639 126.858V139.748H75.691Z" fill="#FEC665"/>
<defs>
<filter id="filter0_d" x="350.681" y="122.186" width="136.965" height="259.714" filterUnits="userSpaceOnUse" color-interpolation-filters="sRGB">
<feFlood flood-opacity="0" result="BackgroundImageFix"/>
<feColorMatrix in="SourceAlpha" type="matrix" values="0 0 0 0 0 0 0 0 0 0 0 0 0 0 0 0 0 0 127 0"/>
<feOffset dy="4"/>
<feGaussianBlur stdDeviation="2"/>
<feColorMatrix type="matrix" values="0 0 0 0 0 0 0 0 0 0 0 0 0 0 0 0 0 0 0.25 0"/>
<feBlend mode="normal" in2="BackgroundImageFix" result="effect1_dropShadow"/>
<feBlend mode="normal" in="SourceGraphic" in2="effect1_dropShadow" result="shape"/>
</filter>
<filter id="filter1_d" x="386.446" y="151.067" width="99.3791" height="176.813" filterUnits="userSpaceOnUse" color-interpolation-filters="sRGB">
<feFlood flood-opacity="0" result="BackgroundImageFix"/>
<feColorMatrix in="SourceAlpha" type="matrix" values="0 0 0 0 0 0 0 0 0 0 0 0 0 0 0 0 0 0 127 0"/>
<feOffset dy="4"/>
<feGaussianBlur stdDeviation="2"/>
<feColorMatrix type="matrix" values="0 0 0 0 0 0 0 0 0 0 0 0 0 0 0 0 0 0 0.25 0"/>
<feBlend mode="normal" in2="BackgroundImageFix" result="effect1_dropShadow"/>
<feBlend mode="normal" in="SourceGraphic" in2="effect1_dropShadow" result="shape"/>
</filter>
<filter id="filter2_d" x="390.044" y="148.433" width="99.3911" height="176.697" filterUnits="userSpaceOnUse" color-interpolation-filters="sRGB">
<feFlood flood-opacity="0" result="BackgroundImageFix"/>
<feColorMatrix in="SourceAlpha" type="matrix" values="0 0 0 0 0 0 0 0 0 0 0 0 0 0 0 0 0 0 127 0"/>
<feOffset dy="4"/>
<feGaussianBlur stdDeviation="2"/>
<feColorMatrix type="matrix" values="0 0 0 0 0 0 0 0 0 0 0 0 0 0 0 0 0 0 0.25 0"/>
<feBlend mode="normal" in2="BackgroundImageFix" result="effect1_dropShadow"/>
<feBlend mode="normal" in="SourceGraphic" in2="effect1_dropShadow" result="shape"/>
</filter>
</defs>
</svg>
