<svg width="972" height="738" viewBox="0 0 972 738" fill="none" xmlns="http://www.w3.org/2000/svg">
<g clip-path="url(#clip0)">
<path d="M972 0H0V619H972V0Z" fill="#2E3740"/>
<path d="M88 117C95.732 117 102 110.732 102 103C102 95.268 95.732 89 88 89C80.268 89 74 95.268 74 103C74 110.732 80.268 117 88 117Z" fill="#F2F2F2"/>
<path d="M427 68C434.732 68 441 61.732 441 54C441 46.268 434.732 40 427 40C419.268 40 413 46.268 413 54C413 61.732 419.268 68 427 68Z" fill="#F2F2F2"/>
<path d="M418 301C431.807 301 443 289.807 443 276C443 262.193 431.807 251 418 251C404.193 251 393 262.193 393 276C393 289.807 404.193 301 418 301Z" fill="#F2F2F2"/>
<path d="M333 68C336.314 68 339 65.3137 339 62C339 58.6863 336.314 56 333 56C329.686 56 327 58.6863 327 62C327 65.3137 329.686 68 333 68Z" fill="#FF6584"/>
<path d="M63 309C66.3137 309 69 306.314 69 303C69 299.686 66.3137 297 63 297C59.6863 297 57 299.686 57 303C57 306.314 59.6863 309 63 309Z" fill="#FF6584"/>
<path d="M894 322C897.314 322 900 319.314 900 316C900 312.686 897.314 310 894 310C890.686 310 888 312.686 888 316C888 319.314 890.686 322 894 322Z" fill="#FF6584"/>
<path d="M240 202C243.314 202 246 199.314 246 196C246 192.686 243.314 190 240 190C236.686 190 234 192.686 234 196C234 199.314 236.686 202 240 202Z" fill="#F2F2F2"/>
<path d="M900 68C903.314 68 906 65.3137 906 62C906 58.6863 903.314 56 900 56C896.686 56 894 58.6863 894 62C894 65.3137 896.686 68 900 68Z" fill="#F2F2F2"/>
<path d="M88 493C91.3137 493 94 490.314 94 487C94 483.686 91.3137 481 88 481C84.6863 481 82 483.686 82 487C82 490.314 84.6863 493 88 493Z" fill="#F2F2F2"/>
<path d="M810 435C813.314 435 816 432.314 816 429C816 425.686 813.314 423 810 423C806.686 423 804 425.686 804 429C804 432.314 806.686 435 810 435Z" fill="#F2F2F2"/>
<path d="M636 62C639.314 62 642 59.3137 642 56C642 52.6863 639.314 50 636 50C632.686 50 630 52.6863 630 56C630 59.3137 632.686 62 636 62Z" fill="#F2F2F2"/>
<path d="M729 169C726.033 169 723.133 168.12 720.666 166.472C718.2 164.824 716.277 162.481 715.142 159.74C714.006 156.999 713.709 153.983 714.288 151.074C714.867 148.164 716.296 145.491 718.393 143.393C720.491 141.296 723.164 139.867 726.074 139.288C728.983 138.709 731.999 139.007 734.74 140.142C737.481 141.277 739.824 143.2 741.472 145.666C743.12 148.133 744 151.033 744 154C743.996 157.977 742.414 161.79 739.602 164.602C736.79 167.414 732.977 168.996 729 169V169ZM729 141C726.429 141 723.915 141.762 721.778 143.191C719.64 144.619 717.974 146.65 716.99 149.025C716.006 151.401 715.748 154.014 716.25 156.536C716.751 159.058 717.99 161.374 719.808 163.192C721.626 165.01 723.942 166.249 726.464 166.75C728.986 167.252 731.599 166.994 733.975 166.01C736.35 165.026 738.381 163.36 739.809 161.222C741.238 159.085 742 156.571 742 154C741.996 150.553 740.625 147.249 738.188 144.812C735.751 142.375 732.447 141.004 729 141V141Z" fill="#F2F2F2"/>
<path d="M701 207C698.824 207 696.698 206.355 694.889 205.146C693.08 203.937 691.67 202.22 690.837 200.21C690.005 198.2 689.787 195.988 690.211 193.854C690.636 191.72 691.683 189.76 693.222 188.222C694.76 186.683 696.72 185.636 698.854 185.211C700.988 184.787 703.2 185.005 705.21 185.837C707.22 186.67 708.937 188.08 710.146 189.889C711.355 191.698 712 193.824 712 196C711.997 198.916 710.837 201.712 708.775 203.775C706.712 205.837 703.916 206.997 701 207V207ZM701 187C699.22 187 697.48 187.528 696 188.517C694.52 189.506 693.366 190.911 692.685 192.556C692.004 194.2 691.826 196.01 692.173 197.756C692.52 199.502 693.377 201.105 694.636 202.364C695.895 203.623 697.498 204.48 699.244 204.827C700.99 205.174 702.8 204.996 704.444 204.315C706.089 203.634 707.494 202.48 708.483 201C709.472 199.52 710 197.78 710 196C709.997 193.614 709.048 191.326 707.361 189.639C705.674 187.952 703.386 187.003 701 187V187Z" fill="#F2F2F2"/>
<path d="M763 260C760.824 260 758.698 259.355 756.889 258.146C755.08 256.937 753.67 255.22 752.837 253.21C752.005 251.2 751.787 248.988 752.211 246.854C752.636 244.72 753.683 242.76 755.222 241.222C756.76 239.683 758.72 238.636 760.854 238.211C762.988 237.787 765.2 238.005 767.21 238.837C769.22 239.67 770.937 241.08 772.146 242.889C773.355 244.698 774 246.824 774 249C773.997 251.916 772.837 254.712 770.775 256.775C768.712 258.837 765.916 259.997 763 260V260ZM763 240C761.22 240 759.48 240.528 758 241.517C756.52 242.506 755.366 243.911 754.685 245.556C754.004 247.2 753.826 249.01 754.173 250.756C754.52 252.502 755.377 254.105 756.636 255.364C757.895 256.623 759.498 257.48 761.244 257.827C762.99 258.174 764.8 257.996 766.444 257.315C768.089 256.634 769.494 255.48 770.483 254C771.472 252.52 772 250.78 772 249C771.997 246.614 771.048 244.326 769.361 242.639C767.674 240.952 765.386 240.003 763 240Z" fill="#F2F2F2"/>
<path d="M743 275C726.782 275 710.928 270.191 697.443 261.181C683.958 252.17 673.448 239.364 667.242 224.38C661.036 209.397 659.412 192.909 662.576 177.003C665.74 161.096 673.549 146.485 685.017 135.017C696.485 123.549 711.096 115.74 727.003 112.576C742.909 109.412 759.397 111.036 774.38 117.242C789.364 123.448 802.17 133.958 811.181 147.443C820.191 160.928 825 176.782 825 193C824.975 214.74 816.328 235.583 800.956 250.956C785.583 266.328 764.74 274.975 743 275V275ZM743 113C727.178 113 711.71 117.692 698.554 126.482C685.398 135.273 675.145 147.767 669.09 162.385C663.035 177.003 661.45 193.089 664.537 208.607C667.624 224.126 675.243 238.38 686.431 249.569C697.62 260.757 711.874 268.376 727.393 271.463C742.911 274.55 758.997 272.965 773.615 266.91C788.233 260.855 800.727 250.602 809.518 237.446C818.308 224.29 823 208.823 823 193C822.976 171.79 814.54 151.456 799.542 136.458C784.544 121.46 764.21 113.024 743 113V113Z" fill="#F2F2F2"/>
<path d="M743 226C674.589 226 621 211.505 621 193C621 182.217 636.905 172.952 665.786 166.91L666.196 168.868C638.744 174.61 623 183.406 623 193C623 209.804 677.953 224 743 224C808.047 224 863 209.804 863 193C863 183.388 847.202 174.581 819.657 168.837L820.065 166.879C849.042 172.922 865 182.198 865 193C865 211.505 811.411 226 743 226Z" fill="#F2F2F2"/>
<path d="M681.441 543.216C678.667 543.216 675.864 543.172 673.113 543.086L673.175 541.088C677.126 541.211 681.157 541.246 685.126 541.191L685.153 543.191C683.918 543.208 682.68 543.216 681.441 543.216ZM697.186 542.752L697.069 540.756C701.025 540.523 705.032 540.195 708.978 539.782L709.187 541.77C705.211 542.187 701.173 542.518 697.186 542.752V542.752ZM661.09 542.441C657.101 542.135 653.07 541.735 649.108 541.249L649.352 539.264C653.284 539.746 657.284 540.144 661.243 540.447L661.09 542.441ZM721.129 540.242L720.83 538.265C724.76 537.668 728.721 536.976 732.599 536.206L732.989 538.167C729.081 538.943 725.09 539.641 721.129 540.242V540.242ZM637.194 539.51C633.253 538.842 629.275 538.075 625.371 537.227L625.795 535.272C629.67 536.114 633.617 536.876 637.528 537.538L637.194 539.51ZM744.743 535.548L744.262 533.607C748.121 532.653 752.001 531.598 755.794 530.473L756.363 532.391C752.54 533.525 748.63 534.587 744.743 535.548V535.548ZM613.667 534.402C609.801 533.374 605.911 532.243 602.104 531.039L602.707 529.132C606.484 530.327 610.345 531.449 614.18 532.468L613.667 534.402ZM767.825 528.701L767.169 526.812C770.913 525.51 774.678 524.103 778.363 522.628L779.105 524.486C775.393 525.971 771.598 527.389 767.825 528.701V528.701ZM590.679 527.134C586.925 525.754 583.147 524.265 579.452 522.709L580.228 520.865C583.895 522.41 587.644 523.887 591.37 525.257L590.679 527.134ZM790.154 519.766L789.326 517.946C792.921 516.312 796.536 514.568 800.068 512.762L800.978 514.543C797.419 516.363 793.777 518.12 790.154 519.766ZM568.443 517.772C564.835 516.052 561.212 514.223 557.678 512.334L558.62 510.571C562.128 512.445 565.722 514.26 569.304 515.967L568.443 517.772ZM811.552 508.828L810.562 507.091C814.01 505.124 817.453 503.055 820.792 500.943L821.86 502.632C818.496 504.761 815.028 506.846 811.552 508.828V508.828ZM547.176 506.41C543.744 504.368 540.306 502.214 536.96 500.01L538.061 498.34C541.381 500.528 544.792 502.665 548.199 504.691L547.176 506.41ZM831.876 495.97L830.731 494.332C833.978 492.063 837.218 489.687 840.362 487.271L841.581 488.857C838.414 491.292 835.148 493.685 831.876 495.97V495.97ZM527.05 493.154C523.822 490.809 520.597 488.353 517.465 485.852L518.713 484.29C521.821 486.771 525.021 489.208 528.225 491.535L527.05 493.154ZM850.953 481.308L849.664 479.779C852.69 477.225 855.702 474.564 858.617 471.869L859.974 473.337C857.038 476.053 854.002 478.735 850.953 481.308ZM508.225 478.123C505.218 475.49 502.232 472.752 499.348 469.983L500.732 468.54C503.595 471.288 506.559 474.005 509.542 476.619L508.225 478.123ZM868.626 464.961L867.202 463.557C869.992 460.73 872.752 457.804 875.403 454.862L876.889 456.2C874.217 459.166 871.437 462.113 868.626 464.961H868.626ZM490.853 461.45C488.094 458.549 485.37 455.551 482.756 452.54L484.267 451.229C486.861 454.218 489.564 457.193 492.302 460.071L490.853 461.45ZM884.746 447.07L883.201 445.8C885.721 442.733 888.203 439.568 890.579 436.391L892.18 437.588C889.787 440.79 887.286 443.98 884.746 447.07H884.746ZM475.075 443.273C472.598 440.143 470.159 436.912 467.825 433.668L469.448 432.5C471.764 435.718 474.185 438.925 476.643 442.033L475.075 443.273ZM899.174 427.776L897.52 426.653C899.751 423.369 901.935 419.989 904.012 416.605L905.717 417.652C903.623 421.061 901.421 424.467 899.174 427.776L899.174 427.776ZM461.024 423.747C458.844 420.406 456.712 416.968 454.684 413.527L456.406 412.511C458.419 415.926 460.536 419.338 462.698 422.653L461.024 423.747ZM911.79 407.236L910.04 406.269C911.96 402.794 913.825 399.226 915.586 395.663L917.379 396.549C915.605 400.139 913.724 403.735 911.79 407.236V407.236ZM448.819 403.031C446.954 399.505 445.145 395.888 443.443 392.281L445.252 391.427C446.941 395.007 448.735 398.597 450.587 402.095L448.819 403.031ZM922.47 385.615L920.638 384.812C922.232 381.172 923.762 377.445 925.187 373.734L927.054 374.451C925.619 378.191 924.076 381.947 922.47 385.615V385.615ZM438.568 381.299C437.035 377.62 435.567 373.855 434.204 370.109L436.084 369.425C437.436 373.143 438.893 376.878 440.414 380.53L438.568 381.299ZM931.119 363.083L929.22 362.455C930.468 358.694 931.646 354.85 932.72 351.029L934.646 351.57C933.563 355.42 932.376 359.294 931.119 363.084V363.083ZM430.352 358.701C429.162 354.889 428.044 350.996 427.028 347.126L428.963 346.619C429.97 350.459 431.08 354.323 432.261 358.105L430.352 358.701ZM937.637 339.906L935.689 339.453C936.585 335.598 937.403 331.662 938.123 327.754L940.089 328.116C939.365 332.054 938.54 336.02 937.637 339.906ZM424.243 335.412C423.409 331.505 422.654 327.526 422 323.582L423.973 323.253C424.623 327.168 425.372 331.118 426.199 334.994L424.243 335.412ZM941.996 316.228L940.013 315.957C940.551 312.04 941.005 308.045 941.364 304.085L943.356 304.264C942.995 308.256 942.537 312.281 941.996 316.228V316.228ZM420.302 311.662C419.83 307.703 419.443 303.67 419.151 299.677L421.146 299.531C421.435 303.495 421.82 307.496 422.288 311.425L420.302 311.662ZM944.171 292.252L942.172 292.163C942.35 288.2 942.441 284.18 942.441 280.216H944.441C944.441 284.21 944.35 288.26 944.171 292.252V292.252ZM418.544 287.651C418.476 285.199 418.441 282.697 418.441 280.216C418.441 278.677 418.454 277.141 418.481 275.608L420.481 275.643C420.454 277.165 420.441 278.689 420.441 280.216C420.441 282.678 420.476 285.162 420.544 287.596L418.544 287.651ZM942.426 277.426C942.385 273.461 942.253 269.442 942.033 265.48L944.029 265.369C944.251 269.361 944.384 273.41 944.426 277.405L942.426 277.426ZM420.955 263.703L418.959 263.578C419.209 259.582 419.553 255.546 419.982 251.582L421.971 251.797C421.544 255.731 421.203 259.737 420.955 263.703ZM941.097 253.568C940.698 249.625 940.201 245.636 939.621 241.71L941.599 241.418C942.183 245.374 942.684 249.394 943.088 253.366L941.097 253.568ZM423.528 239.95L421.551 239.645C422.164 235.688 422.876 231.7 423.668 227.791L425.628 228.187C424.842 232.067 424.136 236.024 423.528 239.95ZM937.602 229.935C936.839 226.033 935.979 222.106 935.044 218.262L936.987 217.79C937.929 221.663 938.797 225.62 939.565 229.551L937.602 229.935ZM428.265 216.533L426.325 216.047C427.296 212.173 428.372 208.268 429.523 204.438L431.438 205.013C430.296 208.814 429.229 212.689 428.265 216.533ZM931.95 206.72C930.835 202.912 929.616 199.081 928.328 195.333L930.218 194.683C931.517 198.46 932.746 202.32 933.87 206.157L931.95 206.72ZM435.15 193.62L433.263 192.957C434.592 189.176 436.027 185.377 437.528 181.666L439.383 182.416C437.893 186.098 436.469 189.868 435.15 193.62ZM924.183 184.125C922.724 180.444 921.162 176.751 919.539 173.146L921.363 172.324C922.999 175.957 924.573 179.679 926.043 183.388L924.183 184.125ZM444.127 171.422L442.309 170.587C443.98 166.95 445.757 163.302 447.593 159.745L449.371 160.662C447.548 164.192 445.784 167.812 444.127 171.422ZM914.395 162.387C912.605 158.856 910.709 155.318 908.758 151.872L910.499 150.887C912.464 154.359 914.375 157.924 916.178 161.482L914.395 162.387ZM455.104 150.157L453.37 149.159C455.365 145.695 457.469 142.227 459.624 138.853L461.31 139.929C459.171 143.278 457.083 146.719 455.104 150.157V150.157ZM902.645 141.622C900.532 138.258 898.319 134.906 896.068 131.66L897.711 130.521C899.979 133.792 902.21 137.169 904.338 140.559L902.645 141.622ZM467.977 129.999L466.342 128.846C468.648 125.576 471.058 122.317 473.508 119.159L475.088 120.384C472.657 123.519 470.264 126.753 467.977 129.999ZM889.041 122.006C886.63 118.85 884.121 115.711 881.579 112.679L883.112 111.395C885.672 114.45 888.202 117.612 890.63 120.793L889.041 122.006ZM482.63 111.107L481.108 109.811C483.695 106.772 486.392 103.747 489.123 100.82L490.585 102.184C487.875 105.089 485.198 108.091 482.63 111.107ZM873.7 103.699C871.013 100.775 868.226 97.8765 865.418 95.0855L866.828 93.6665C869.658 96.4795 872.465 99.3994 875.172 102.346L873.7 103.699ZM498.935 93.6352L497.536 92.2056C500.396 89.4077 503.356 86.6415 506.332 83.9844L507.664 85.4765C504.71 88.1133 501.773 90.8584 498.935 93.6353L498.935 93.6352ZM856.753 86.8555C853.808 84.185 850.768 81.5512 847.717 79.0273L848.993 77.4863C852.066 80.0293 855.13 82.6831 858.096 85.374L856.753 86.8555ZM516.753 77.7237L515.49 76.1729C518.584 73.6539 521.78 71.1695 524.992 68.7886L526.184 70.395C522.996 72.7583 519.823 75.2237 516.753 77.7237ZM838.335 71.6167C835.158 69.2246 831.889 66.8775 828.62 64.6407L829.749 62.9903C833.044 65.2437 836.336 67.6084 839.538 70.0191L838.335 71.6167ZM535.935 63.5064L534.819 61.8472C538.129 59.6196 541.538 57.4385 544.949 55.3628L545.988 57.0718C542.603 59.1314 539.221 61.2964 535.935 63.5064V63.5064ZM818.594 58.1153C815.214 56.0235 811.744 53.9844 808.279 52.0537L809.252 50.3067C812.744 52.252 816.241 54.3072 819.647 56.4141L818.594 58.1153ZM556.323 51.105L555.363 49.3501C558.865 47.4336 562.457 45.5742 566.037 43.8228L566.916 45.6197C563.363 47.3574 559.799 49.2027 556.323 51.105V51.105ZM797.693 46.4712C794.134 44.6983 790.489 42.9854 786.858 41.3804L787.667 39.5513C791.326 41.1685 795 42.8946 798.586 44.6812L797.693 46.4712ZM577.745 40.627L576.95 38.792C580.61 37.2055 584.354 35.6841 588.078 34.2695L588.788 36.1396C585.092 37.543 581.377 39.0528 577.745 40.627ZM775.796 36.7925C772.093 35.3565 768.303 33.9864 764.531 32.7207L765.168 30.8242C768.968 32.1001 772.788 33.4805 776.519 34.9282L775.796 36.7925ZM600.053 32.1558L599.43 30.2554C603.231 29.0093 607.109 27.836 610.956 26.7691L611.49 28.6958C607.673 29.7549 603.825 30.919 600.053 32.1558ZM753.117 29.1821C749.302 28.0947 745.412 27.082 741.553 26.1723L742.012 24.2261C745.901 25.1426 749.821 26.1631 753.666 27.2583L753.117 29.1821ZM623.075 25.7666L622.63 23.8169C626.526 22.9267 630.496 22.1157 634.427 21.4067L634.782 23.3745C630.88 24.0786 626.942 24.8833 623.075 25.7666V25.7666ZM729.863 23.6997C725.968 22.9687 722.002 22.3183 718.072 21.7666L718.349 19.7861C722.309 20.3423 726.307 20.9975 730.232 21.7339L729.863 23.6997ZM646.587 21.5234L646.323 19.541C650.282 19.0127 654.308 18.5683 658.29 18.2217L658.463 20.2139C654.512 20.5586 650.517 20.9991 646.587 21.5235V21.5234ZM706.204 20.376C702.264 20.0049 698.254 19.7187 694.285 19.5268L694.382 17.5288C698.381 17.7227 702.421 18.0108 706.391 18.3848L706.204 20.376ZM670.389 19.4468L670.305 17.4488C673.981 17.2954 677.727 17.2173 681.441 17.2163L682.346 17.2178L682.34 19.2178L681.441 19.2163C677.755 19.2173 674.037 19.2949 670.389 19.4468V19.4468Z" fill="#F2F2F2"/>
<path d="M455.914 386.006C465.28 374.676 475.855 364.024 488.762 356.988C501.668 349.951 517.216 346.828 531.308 351.013C541.828 354.137 550.794 361.009 559.093 368.189C576.095 382.901 591.772 399.744 611.826 409.91C631.88 420.075 658.304 421.973 675.337 407.298C688.818 395.683 694.565 375.565 710.664 367.984C726.533 360.511 744.934 368.536 761.037 375.49C782.906 384.932 805.537 392.503 828.685 398.12C844.345 401.919 860.476 404.831 876.517 403.303C892.559 401.775 908.659 395.353 919.122 383.098" fill="#F2F2F2"/>
<path d="M379.446 329.724H419.822C422.578 313.795 422.578 297.511 419.822 281.582H379.446C383.995 297.307 383.995 313.999 379.446 329.724V329.724Z" fill="#FFC765"/>
<path d="M52.4458 351.724H92.8223C95.5777 335.795 95.5777 319.511 92.8223 303.582H52.4458C56.9945 319.307 56.9945 335.999 52.4458 351.724Z" fill="#FFC765"/>
<path d="M755.446 205.724H795.822C798.578 189.795 798.578 173.511 795.822 157.582H755.446C759.995 173.307 759.995 189.999 755.446 205.724V205.724Z" fill="#FFC765"/>
<path d="M206.688 657.431L198.225 684.361L224.385 686.669L222.077 657.431H206.688Z" fill="#FFB9B9"/>
<path d="M333.644 678.205V715.138H363.651L355.188 678.205H333.644Z" fill="#FFB9B9"/>
<path d="M226.693 409.676L214.383 526.628C214.383 526.628 198.994 629.731 202.072 645.889C205.149 662.047 201.302 664.356 201.302 664.356H224.385C224.385 664.356 223.616 654.353 228.232 649.737C232.849 645.12 230.541 631.27 230.541 631.27L289.017 452.763L322.102 552.789C322.102 552.789 327.488 662.817 328.258 664.356C329.027 665.895 331.335 686.669 331.335 686.669H359.804C359.804 686.669 355.957 674.358 361.343 670.511C366.729 666.664 371.346 669.742 366.729 662.817C362.113 655.892 360.574 647.428 362.112 643.581C363.651 639.734 363.651 624.345 363.651 624.345C363.651 624.345 361.343 416.6 348.263 409.675C335.183 402.751 226.693 409.676 226.693 409.676Z" fill="#2F2E41"/>
<path d="M341.775 695.564C341.775 695.564 328.618 693.59 328.618 694.248C328.618 694.906 312.831 737.665 328.618 737.007C344.406 736.349 404.268 727.797 400.322 712.009C396.375 696.222 376.64 700.826 376.64 700.826L358.878 690.959L341.775 695.564Z" fill="#2F2E41"/>
<path d="M212.241 681.94C212.241 681.94 225.397 679.966 225.397 680.624C225.397 681.282 241.185 724.04 225.397 723.383C209.61 722.725 149.747 714.173 153.694 698.385C157.641 682.597 177.376 687.202 177.376 687.202L195.137 677.335L212.241 681.94Z" fill="#2F2E41"/>
<path d="M275.155 503.536H314.011C316.663 488.207 316.663 472.537 314.011 457.208H275.155C279.533 472.34 279.533 488.404 275.155 503.536V503.536Z" fill="#D0CDE1"/>
<path d="M263.84 505.153H302.696C305.348 489.824 305.348 474.153 302.696 458.824H263.84C268.217 473.957 268.217 490.02 263.84 505.153V505.153Z" fill="#FFC765"/>
<path d="M289.995 189.876C306.718 189.876 320.274 176.319 320.274 159.596C320.274 142.874 306.718 129.317 289.995 129.317C273.272 129.317 259.715 142.874 259.715 159.596C259.715 176.319 273.272 189.876 289.995 189.876Z" fill="#FFB9B9"/>
<path d="M265.934 155.765C265.934 155.765 260.548 209.625 253.623 213.472C246.699 217.319 306.714 221.166 306.714 221.166C306.714 221.166 292.095 171.923 296.711 167.306C301.328 162.69 265.934 155.765 265.934 155.765Z" fill="#FFB9B9"/>
<path d="M330.566 211.933C330.566 211.933 309.022 191.158 284.4 195.006C259.779 198.853 242.082 203.469 242.082 203.469C242.082 203.469 204.38 223.474 203.611 239.632C202.841 255.79 217.46 316.575 217.46 316.575C217.46 316.575 224.385 415.831 225.155 415.831C225.924 415.831 355.188 414.292 355.188 414.292L331.335 285.028L330.566 211.933Z" fill="#575A89"/>
<path d="M325.534 397.08C320.548 398.427 311.954 396.564 302.982 393.625C286.978 388.37 269.781 379.668 269.781 379.668C269.781 379.668 214.383 357.355 198.225 345.813C182.067 334.272 192.839 288.106 192.839 288.106L217.46 295.8L215.921 324.269L276.706 363.51C286.257 364.406 295.688 366.301 304.844 369.165C315.078 372.528 325.018 377.767 328.612 385.816C329.172 387.044 329.57 388.34 329.797 389.67C330.528 393.918 328.804 396.187 325.534 397.08Z" fill="#FFB9B9"/>
<path opacity="0.15" d="M328.612 385.816C327.542 389.801 326.503 393.594 325.534 397.08C320.548 398.427 311.954 396.564 302.982 393.625L304.844 369.165C315.078 372.528 325.018 377.767 328.612 385.816Z" fill="black"/>
<path d="M317.486 273.487L312.869 314.267L305.213 414.886C305.213 414.886 262.856 465.844 286.709 467.382C310.561 468.921 323.641 417.37 323.641 417.37C323.641 417.37 347.493 335.811 346.724 318.883C345.955 301.956 346.724 273.487 346.724 273.487H317.486Z" fill="#FFB9B9"/>
<path d="M324.19 156.217C324.981 155.9 325.717 155.457 326.367 154.905C328.02 153.301 327.741 150.583 327.023 148.394C326.306 146.205 325.257 143.942 325.771 141.697C326.01 140.65 326.581 139.694 326.743 138.633C327.131 136.11 325.118 133.81 322.89 132.565C320.663 131.319 318.1 130.705 315.995 129.263C312.766 127.05 310.983 123.147 307.705 121.008C304.5 118.916 300.427 118.851 296.599 118.855L285.171 118.868C279.199 118.875 272.636 119.096 268.191 123.085C266.839 124.298 265.769 125.8 264.4 126.994C261.642 129.399 257.921 130.358 254.859 132.36C252.572 133.889 250.703 135.964 249.42 138.397C248.138 140.83 247.481 143.545 247.511 146.295C247.62 151.366 250.091 156.292 249.449 161.323C249.018 164.698 247.196 167.941 247.675 171.31C248.243 175.304 251.907 178.166 255.665 179.636C259.423 181.105 263.52 181.632 267.177 183.339C270.161 184.732 273.279 186.952 276.425 185.977C279.087 185.153 280.547 182.342 281.501 179.724C282.616 176.662 283.435 173.5 283.947 170.281C284.33 167.874 284.584 165.322 285.998 163.337C286.828 162.256 287.921 161.405 289.172 160.866C290.423 160.326 291.792 160.115 293.148 160.253C299.318 160.795 302.792 171.304 308.467 168.819C311.28 167.587 313.442 163.898 315.696 161.887C318.246 159.606 321.105 157.697 324.19 156.217V156.217Z" fill="#2F2E41"/>
<path d="M212.844 232.707C212.844 232.707 197.455 238.093 191.3 259.637C185.144 281.181 187.453 295.8 187.453 295.8L219.769 301.186L212.844 232.707Z" fill="#575A89"/>
<path d="M315.177 210.394C315.177 210.394 342.877 204.239 346.724 230.399C349.131 247.997 350.416 265.729 350.571 283.49C350.571 283.49 324.411 271.179 312.869 283.49L315.177 210.394Z" fill="#575A89"/>
<path d="M414 297H387V300H414V297Z" fill="#F2F2F2"/>
<path d="M87 322H60V325H87V322Z" fill="#F2F2F2"/>
<path d="M414 304H387V307H414V304Z" fill="#F2F2F2"/>
<path d="M791 169H764V172H791V169Z" fill="#F2F2F2"/>
<path d="M791 183H764V186H791V183Z" fill="#F2F2F2"/>
<path d="M791 176H764V179H791V176Z" fill="#F2F2F2"/>
</g>
<defs>
<clipPath id="clip0">
<rect width="972" height="737.014" fill="white"/>
</clipPath>
</defs>
</svg>
